<?xml version="1.0" encoding="UTF-8" standalone="no"?>
<svg
   height="24"
   viewBox="0 -960 960 960"
   width="24"
   version="1.1"
   id="svg4"
   sodipodi:docname="configuration_purple.svg"
   inkscape:version="1.2.2 (1:1.2.2+202212051550+b0a8486541)"
   xmlns:inkscape="http://www.inkscape.org/namespaces/inkscape"
   xmlns:sodipodi="http://sodipodi.sourceforge.net/DTD/sodipodi-0.dtd"
   xmlns="http://www.w3.org/2000/svg"
   xmlns:svg="http://www.w3.org/2000/svg">
  <defs
     id="defs8" />
  <sodipodi:namedview
     id="namedview6"
     pagecolor="#ffffff"
     bordercolor="#666666"
     borderopacity="1.0"
     inkscape:showpageshadow="2"
     inkscape:pageopacity="0.0"
     inkscape:pagecheckerboard="0"
     inkscape:deskcolor="#d1d1d1"
     showgrid="false"
     inkscape:zoom="27.916667"
     inkscape:cx="8.4179104"
     inkscape:cy="12.01791"
     inkscape:window-width="1528"
     inkscape:window-height="836"
     inkscape:window-x="72"
     inkscape:window-y="27"
     inkscape:window-maximized="1"
     inkscape:current-layer="svg4" />
  <path
     d="m370-80-16-128q-13-5-24.5-12T307-235l-119 50L78-375l103-78q-1-7-1-13.5v-27q0-6.5 1-13.5L78-585l110-190 119 50q11-8 23-15t24-12l16-128h220l16 128q13 5 24.5 12t22.5 15l119-50 110 190-103 78q1 7 1 13.5v27q0 6.5-2 13.5l103 78-110 190-118-50q-11 8-23 15t-24 12L590-80H370Zm112-260q58 0 99-41t41-99q0-58-41-99t-99-41q-59 0-99.5 41T342-480q0 58 40.5 99t99.5 41Zm0-80q-25 0-42.5-17.5T422-480q0-25 17.5-42.5T482-540q25 0 42.5 17.5T542-480q0 25-17.5 42.5T482-420Zm-2-60Zm-40 320h79l14-106q31-8 57.5-23.5T639-327l99 41 39-68-86-65q5-14 7-29.5t2-31.5q0-16-2-31.5t-7-29.5l86-65-39-68-99 42q-22-23-48.5-38.5T533-694l-13-106h-79l-14 106q-31 8-57.5 23.5T321-633l-99-41-39 68 86 64q-5 15-7 30t-2 32q0 16 2 31t7 30l-86 65 39 68 99-42q22 23 48.5 38.5T427-266l13 106Z"
     id="path2" />
  <path
     style="fill:#800080;stroke-width:0.523673"
     d="m 9.2597015,21.973372 c 0,-0.05007 -0.3973315,-3.182348 -0.4042356,-3.186701 -0.00424,-0.0027 -0.1164018,-0.05494 -0.249254,-0.116158 C 8.4733598,18.609299 8.2139781,18.4616 8.0298079,18.342294 7.8456376,18.222987 7.6796242,18.125373 7.6608888,18.125373 c -0.018735,0 -0.6854722,0.274201 -1.4816375,0.609336 -1.1493938,0.483822 -1.4562165,0.600035 -1.4895348,0.564179 -0.085266,-0.09176 -2.7042577,-4.650775 -2.6873859,-4.678074 0.00962,-0.01557 0.5824574,-0.454458 1.2729665,-0.975307 l 1.2554712,-0.947 L 4.5308615,12 4.5309546,11.301493 3.2751073,10.354038 C 2.5843941,9.8329372 2.0115356,9.3940796 2.0020913,9.3787984 1.9898779,9.3590368 4.6052704,4.7815312 4.6978364,4.6606586 c 0.00588,-0.00768 0.6679935,0.262402 1.4713557,0.6001878 0.8033624,0.3377858 1.4742176,0.6140717 1.4907894,0.6139682 0.016572,-1.075e-4 0.1999415,-0.1067832 0.4074878,-0.2370667 0.2075459,-0.1302833 0.4680171,-0.2777501 0.5788241,-0.327704 0.1108073,-0.049954 0.2049349,-0.093243 0.2091725,-0.096199 0.00692,-0.00483 0.4042356,-3.1374755 0.4042356,-3.1872163 0,-0.011362 1.2331345,-0.020659 2.7402985,-0.020659 1.507164,0 2.740299,0.0093 2.740299,0.020659 0,0.050073 0.397331,3.1823473 0.404235,3.1867004 0.0042,0.00267 0.116402,0.054943 0.249254,0.1161574 0.132852,0.061215 0.392234,0.2089136 0.576404,0.3282199 0.18417,0.1193065 0.349503,0.21709 0.367406,0.217297 0.0179,2.15e-4 0.690132,-0.2757943 1.493841,-0.6133365 0.80371,-0.3375424 1.465807,-0.6077119 1.471326,-0.6003767 0.09831,0.1306401 2.707501,4.6975131 2.695202,4.7174138 -0.0096,0.015526 -0.5823,0.4545045 -1.272677,0.9755091 l -1.255231,0.94728 -0.0061,0.653731 c -0.0033,0.359552 -0.0077,0.673307 -0.0097,0.697233 -0.002,0.02393 0.471941,0.403854 1.053135,0.844284 0.581194,0.44043 1.15475,0.876228 1.27457,0.968439 l 0.217854,0.167656 -1.338979,2.310448 c -0.736439,1.270746 -1.351818,2.332174 -1.367509,2.358729 -0.02213,0.03745 -0.345283,-0.08614 -1.440068,-0.550739 -0.776347,-0.329461 -1.438672,-0.606667 -1.471833,-0.616013 -0.03469,-0.0098 -0.222961,0.08512 -0.443309,0.223439 -0.210658,0.132237 -0.473675,0.281302 -0.584482,0.331256 -0.110808,0.04995 -0.204935,0.09324 -0.209173,0.0962 -0.0069,0.0048 -0.404235,3.137476 -0.404235,3.187217 0,0.01136 -1.233135,0.02066 -2.740299,0.02066 -1.507164,0 -2.7402985,-0.0093 -2.7402985,-0.02066 z m 3.7421265,-2.065909 c 0.011,-0.06403 0.08441,-0.61612 0.163139,-1.226866 0.07873,-0.610746 0.155084,-1.156653 0.169683,-1.213126 0.02375,-0.09189 0.06042,-0.113704 0.348932,-0.207622 0.715781,-0.233001 1.499159,-0.685458 2.023918,-1.168957 l 0.268619,-0.247499 1.092538,0.453174 c 0.600895,0.249246 1.160251,0.480154 1.243012,0.513129 l 0.150474,0.05995 0.492358,-0.863015 c 0.41873,-0.733958 0.484309,-0.869066 0.43854,-0.903481 -1.369074,-1.029444 -2.073638,-1.572131 -2.073638,-1.597208 0,-0.0174 0.036,-0.17395 0.08,-0.347894 0.07155,-0.282842 0.08,-0.405213 0.08,-1.158052 0,-0.752839 -0.0085,-0.87521 -0.08,-1.158052 -0.044,-0.173944 -0.08,-0.329983 -0.08,-0.346756 0,-0.02311 1.103524,-0.8738381 2.073289,-1.5983458 0.04619,-0.034509 -0.01829,-0.1674673 -0.437928,-0.9030204 -0.457467,-0.8018576 -0.49766,-0.8604358 -0.57119,-0.8324626 -0.0435,0.01655 -0.59796,0.2509035 -1.232127,0.5207861 L 15.998416,8.172845 15.670731,7.8836464 C 15.088551,7.3698437 14.388978,6.9661838 13.702593,6.7480116 13.534525,6.6945901 13.383279,6.6389957 13.36649,6.6244685 13.342501,6.6037107 13.024627,4.2038798 13.021629,4.0208955 13.02106,3.98616 12.796351,3.9761194 12.019533,3.9761194 h -1.001361 l -0.02,0.1164179 c -0.011,0.06403 -0.08441,0.6161194 -0.163139,1.2268657 -0.07873,0.6107463 -0.155084,1.1560137 -0.169683,1.2117059 -0.02394,0.091329 -0.06518,0.1144406 -0.420574,0.2357029 C 9.464285,7.0331198 8.7900287,7.437187 8.2029851,7.9904131 L 8.0238806,8.1592001 6.9313433,7.7046383 C 6.3304478,7.4546293 5.7710923,7.2231378 5.6883313,7.190213 L 5.5378567,7.1303499 5.0454991,7.9933648 c -0.421141,0.7381848 -0.4844653,0.8688677 -0.4377949,0.9034814 2.0538297,1.5232518 2.0787044,1.5429698 2.0620305,1.6344968 -0.00897,0.04925 -0.046468,0.218508 -0.083323,0.37612 -0.055433,0.237061 -0.066826,0.428898 -0.065952,1.110447 9.385e-4,0.730121 0.010109,0.859872 0.080597,1.140142 0.043747,0.173944 0.07954,0.330261 0.07954,0.347372 0,0.01711 -0.4634328,0.38051 -1.0298507,0.807554 -0.5664179,0.427044 -1.044416,0.789829 -1.062218,0.80619 -0.0186,0.01709 0.176306,0.395512 0.4582173,0.889652 0.4623401,0.8104 0.4952943,0.858117 0.5723862,0.828806 0.044991,-0.01711 0.5995834,-0.251339 1.232428,-0.52052 l 1.1506266,-0.489419 0.327384,0.288932 c 0.5818732,0.513532 1.2815846,0.91724 1.9678369,1.135369 0.168068,0.05342 0.319314,0.109016 0.336103,0.123543 0.02399,0.02076 0.341863,2.420589 0.344861,2.603573 5.69e-4,0.03474 0.225278,0.04478 1.002096,0.04478 h 1.001361 z"
     id="path306"
     transform="matrix(40,0,0,40,0,-960)" />
  <path
     style="fill:#800080;stroke-width:0.523673"
     d="M 11.432588,15.439381 C 10.700751,15.306919 10.07233,14.965099 9.5444276,14.412343 9.1118534,13.959404 8.8781201,13.563444 8.6974411,12.977492 8.6067365,12.683332 8.6003704,12.619226 8.6003704,12 c 0,-0.619117 0.00638,-0.683369 0.097003,-0.97726 0.1911342,-0.61983 0.4794412,-1.0850062 0.961921,-1.5520354 0.6199336,-0.6000818 1.3093776,-0.8953149 2.1829706,-0.9347907 0.97879,-0.04423 1.728605,0.1992382 2.435985,0.7909736 0.763907,0.639021 1.197257,1.5108185 1.239713,2.4940085 0.02268,0.525211 -0.0203,0.851599 -0.172129,1.307151 -0.351369,1.054257 -1.306549,1.954137 -2.37867,2.240957 -0.320572,0.08576 -1.221346,0.127071 -1.534576,0.07038 z m 1.273228,-2.070295 c 0.306453,-0.150866 0.633246,-0.493063 0.749277,-0.784595 0.0682,-0.171357 0.08293,-0.275184 0.08293,-0.584491 0,-0.309307 -0.01473,-0.413134 -0.08293,-0.584491 -0.116268,-0.292127 -0.442773,-0.633704 -0.750598,-0.785245 -0.226363,-0.111439 -0.2564,-0.116831 -0.650764,-0.116831 -0.396032,0 -0.423643,0.005 -0.655546,0.119185 -0.311699,0.153449 -0.576685,0.418712 -0.719641,0.720394 -0.104543,0.22062 -0.11138,0.260333 -0.11138,0.646988 0,0.372094 0.0093,0.431781 0.09614,0.617061 0.128166,0.273459 0.28683,0.464708 0.51711,0.623308 0.306926,0.211388 0.510694,0.267378 0.929126,0.255298 0.322539,-0.0093 0.385005,-0.02257 0.596279,-0.126581 z"
     id="path308"
     transform="matrix(40,0,0,40,0,-960)" />
</svg>
