<?xml version="1.0" encoding="UTF-8" standalone="no"?>
<svg
   height="48"
   viewBox="0 -960 960 960"
   width="48"
   version="1.1"
   id="svg4"
   sodipodi:docname="delete.svg"
   inkscape:version="1.2.2 (1:1.2.2+202212051550+b0a8486541)"
   xmlns:inkscape="http://www.inkscape.org/namespaces/inkscape"
   xmlns:sodipodi="http://sodipodi.sourceforge.net/DTD/sodipodi-0.dtd"
   xmlns="http://www.w3.org/2000/svg"
   xmlns:svg="http://www.w3.org/2000/svg">
  <defs
     id="defs8" />
  <sodipodi:namedview
     id="namedview6"
     pagecolor="#ffffff"
     bordercolor="#666666"
     borderopacity="1.0"
     inkscape:showpageshadow="2"
     inkscape:pageopacity="0.0"
     inkscape:pagecheckerboard="0"
     inkscape:deskcolor="#d1d1d1"
     showgrid="false"
     inkscape:zoom="17.708333"
     inkscape:cx="20.894118"
     inkscape:cy="20.16"
     inkscape:window-width="1024"
     inkscape:window-height="731"
     inkscape:window-x="522"
     inkscape:window-y="0"
     inkscape:window-maximized="1"
     inkscape:current-layer="svg4" />
  <path
     d="M261-120q-24 0-42-18t-18-42v-570h-11q-12.75 0-21.375-8.675-8.625-8.676-8.625-21.5 0-12.825 8.625-21.325T190-810h158q0-13 8.625-21.5T378-840h204q12.75 0 21.375 8.625T612-810h158q12.75 0 21.375 8.675 8.625 8.676 8.625 21.5 0 12.825-8.625 21.325T770-750h-11v570q0 24-18 42t-42 18H261Zm0-630v570h438v-570H261Zm106 454q0 12.75 8.675 21.375 8.676 8.625 21.5 8.625 12.825 0 21.325-8.625T427-296v-339q0-12.75-8.675-21.375-8.676-8.625-21.5-8.625-12.825 0-21.325 8.625T367-635v339Zm166 0q0 12.75 8.675 21.375 8.676 8.625 21.5 8.625 12.825 0 21.325-8.625T593-296v-339q0-12.75-8.675-21.375-8.676-8.625-21.5-8.625-12.825 0-21.325 8.625T533-635v339ZM261-750v570-570Z"
     id="path2" />
  <path
     style="fill:#800080;stroke-width:0.825556"
     d="m 19.610514,34.637499 c -0.532949,-0.07898 -1.033935,-0.505596 -1.170291,-0.996573 -0.0391,-0.1408 -0.05811,-3.104028 -0.05749,-8.963279 9.17e-4,-8.680666 0.0019,-8.755039 0.115821,-9.007059 0.140731,-0.311258 0.404443,-0.594425 0.691191,-0.742184 0.722193,-0.372139 1.682681,-0.01771 2.009258,0.74144 l 0.120029,0.279017 -0.01481,8.853805 -0.01481,8.853805 -0.121887,0.225882 c -0.311719,0.57768 -0.883437,0.854962 -1.557011,0.755146 z"
     id="path306"
     transform="matrix(20,0,0,20,0,-960)" />
  <path
     style="fill:#800080;stroke-width:0.825556"
     d="m 27.924706,34.644389 c -0.516876,-0.06287 -1.046914,-0.512354 -1.183307,-1.003463 -0.08821,-0.317629 -0.0811,-17.57303 0.0074,-17.868304 0.084,-0.280353 0.44492,-0.693685 0.734918,-0.84163 0.732531,-0.37371 1.688581,-0.02341 2.016497,0.738852 l 0.12003,0.279017 -0.01481,8.853805 -0.01481,8.853805 -0.121887,0.225882 c -0.307856,0.570522 -0.863586,0.844802 -1.543995,0.762036 z"
     id="path308"
     transform="matrix(20,0,0,20,0,-960)" />
  <path
     style="fill:#800080;stroke-width:0.825556"
     d="M 12.536471,41.928169 C 11.384953,41.697036 10.348454,40.675434 10.13764,39.563813 10.09938,39.362067 10.08,34.420921 10.08,24.867586 V 10.475294 H 9.6635705 c -0.7163446,0 -1.2032326,-0.265773 -1.470897,-0.8029059 C 8.029815,9.3455737 7.9978442,8.8738377 8.1125962,8.4908297 8.2054228,8.1810021 8.5288339,7.8283535 8.8627421,7.6728678 L 9.1482353,7.5399269 13.27703,7.5393752 17.405825,7.5388235 17.44068,7.2845252 C 17.48788,6.9401671 17.650081,6.6402536 17.921958,6.394629 18.358225,6.0004881 18.140515,6.0141176 24,6.0141176 c 5.980771,0 5.657223,-0.023449 6.124554,0.4438816 0.262788,0.2627884 0.45427,0.663104 0.45427,0.9497075 v 0.1311168 h 4.1395 4.139501 l 0.292115,0.1455672 c 0.524469,0.2613541 0.79972,0.7164755 0.801761,1.3256981 9.6e-4,0.2867139 -0.03171,0.4362161 -0.145032,0.6636182 -0.272044,0.545923 -0.741918,0.801587 -1.473199,0.801587 H 37.92 v 14.392292 c 0,9.342558 -0.01979,14.499018 -0.0564,14.696471 -0.202609,1.092675 -1.287217,2.161487 -2.396322,2.361422 -0.399623,0.07204 -22.572346,0.07464 -22.930805,0.0027 z M 34.983529,24.762353 V 10.475294 H 24 13.016471 V 24.762353 39.049412 H 24 34.983529 Z"
     id="path364"
     transform="matrix(20,0,0,20,0,-960)" />
</svg>
