<?xml version="1.0" encoding="UTF-8" standalone="no"?>
<svg
   height="48"
   viewBox="0 -960 960 960"
   width="48"
   version="1.1"
   id="svg4"
   sodipodi:docname="pause.svg"
   inkscape:version="1.2.2 (1:1.2.2+202212051550+b0a8486541)"
   xmlns:inkscape="http://www.inkscape.org/namespaces/inkscape"
   xmlns:sodipodi="http://sodipodi.sourceforge.net/DTD/sodipodi-0.dtd"
   xmlns="http://www.w3.org/2000/svg"
   xmlns:svg="http://www.w3.org/2000/svg">
  <defs
     id="defs8" />
  <sodipodi:namedview
     id="namedview6"
     pagecolor="#ffffff"
     bordercolor="#666666"
     borderopacity="1.0"
     inkscape:showpageshadow="2"
     inkscape:pageopacity="0.0"
     inkscape:pagecheckerboard="0"
     inkscape:deskcolor="#d1d1d1"
     showgrid="false"
     inkscape:zoom="17.708333"
     inkscape:cx="21.967059"
     inkscape:cy="24"
     inkscape:window-width="1024"
     inkscape:window-height="731"
     inkscape:window-x="522"
     inkscape:window-y="0"
     inkscape:window-maximized="1"
     inkscape:current-layer="svg4" />
  <path
     d="M400.175-320q12.825 0 21.325-8.625T430-350v-260q0-12.75-8.675-21.375-8.676-8.625-21.5-8.625-12.825 0-21.325 8.625T370-610v260q0 12.75 8.675 21.375 8.676 8.625 21.5 8.625Zm160 0q12.825 0 21.325-8.625T590-350v-260q0-12.75-8.675-21.375-8.676-8.625-21.5-8.625-12.825 0-21.325 8.625T530-610v260q0 12.75 8.675 21.375 8.676 8.625 21.5 8.625ZM480.266-80q-82.734 0-155.5-31.5t-127.266-86q-54.5-54.5-86-127.341Q80-397.681 80-480.5q0-82.819 31.5-155.659Q143-709 197.5-763t127.341-85.5Q397.681-880 480.5-880q82.819 0 155.659 31.5Q709-817 763-763t85.5 127Q880-563 880-480.266q0 82.734-31.5 155.5T763-197.684q-54 54.316-127 86Q563-80 480.266-80Zm.234-60Q622-140 721-239.5t99-241Q820-622 721.188-721 622.375-820 480-820q-141 0-240.5 98.812Q140-622.375 140-480q0 141 99.5 240.5t241 99.5Zm-.5-340Z"
     id="path2" />
  <path
     style="fill:#800080;stroke:none;stroke-width:0.825556"
     d="m 22.588235,43.929371 c -0.108706,-0.01232 -0.477176,-0.05024 -0.818823,-0.08426 -2.189579,-0.218078 -4.51875,-0.908629 -6.612717,-1.960535 C 9.5115535,39.048731 5.5319562,33.801356 4.3554275,27.642353 3.9462736,25.500475 3.9347168,22.748983 4.3253048,20.470588 4.9857067,16.618303 6.9794332,12.808517 9.8233355,9.9644708 13.036702,6.7509431 17.050719,4.7662667 21.543529,4.169581 c 0.941282,-0.1250107 3.80937,-0.1418856 4.74353,-0.027909 3.261242,0.3979017 6.0233,1.4197745 8.809412,3.2591995 1.145364,0.7561835 1.903527,1.3842872 3.024725,2.5058478 1.611787,1.6123077 2.640668,3.0257307 3.661335,5.0297517 0.577647,1.134176 0.857001,1.798925 1.222152,2.908235 1.403856,4.264828 1.274609,9.124069 -0.352973,13.270588 -1.852204,4.718781 -5.225676,8.450123 -9.673583,10.699794 -2.157769,1.09136 -4.046162,1.680685 -6.436951,2.008828 -0.614706,0.08437 -3.467399,0.160473 -3.952941,0.105455 z m 2.908236,-2.962865 c 2.630758,-0.225984 4.882063,-0.911433 6.942156,-2.113658 1.416281,-0.82651 2.361461,-1.564025 3.617844,-2.822969 2.889867,-2.895759 4.489814,-6.250149 4.881615,-10.23462 0.07994,-0.812979 0.07985,-2.834914 -1.69e-4,-3.64871 C 40.546077,18.16151 38.912172,14.753864 36.01249,11.874162 32.623439,8.5084629 28.360552,6.8462545 23.491765,6.9920127 c -4.698954,0.1406739 -8.52979,1.833222 -11.803107,5.2148733 -2.71782,2.807772 -4.2455007,6.093801 -4.6294069,9.95782 -0.089088,0.896673 -0.073475,2.983444 0.029057,3.883569 0.4084806,3.586042 1.7876153,6.614742 4.2583659,9.351743 2.966513,3.286186 6.776707,5.195478 11.100385,5.562415 0.817538,0.06938 2.266605,0.07132 3.049412,0.0041 z"
     id="path860"
     transform="matrix(20,0,0,20,0,-960)" />
  <path
     style="fill:#ff0000;stroke:none;stroke-width:0.825556"
     d="m 19.520343,31.886194 c -0.350407,-0.124733 -0.712427,-0.448378 -0.862305,-0.7709 -0.100479,-0.216219 -0.105022,-0.520084 -0.10621,-7.10299 -0.0011,-6.048893 0.0092,-6.902026 0.08521,-7.084019 0.138781,-0.332149 0.330593,-0.543151 0.654992,-0.720521 0.253601,-0.13866 0.368246,-0.165907 0.700109,-0.166396 0.339045,-4.98e-4 0.441859,0.0247 0.705882,0.173035 0.391705,0.220064 0.649187,0.551028 0.729442,0.937617 0.04331,0.208632 0.05728,2.311688 0.0466,7.017651 -0.01685,7.429675 0.01127,6.88403 -0.377721,7.327071 -0.370006,0.421413 -1.028845,0.584221 -1.576004,0.389452 z"
     id="path1054"
     transform="matrix(20,0,0,20,0,-960)" />
  <path
     style="fill:#ff0000;stroke:none;stroke-width:0.825556"
     d="m 27.6611,31.939476 c -0.512535,-0.130842 -0.947004,-0.553324 -1.074507,-1.04486 -0.09654,-0.372176 -0.108875,-13.303639 -0.01311,-13.750153 0.230305,-1.073876 1.58402,-1.48008 2.408801,-0.7228 0.506297,0.464862 0.464489,-0.214078 0.465893,7.566033 0.0013,7.46517 0.01919,7.030669 -0.306213,7.457291 -0.291481,0.382152 -0.99746,0.617892 -1.480859,0.494489 z"
     id="path1056"
     transform="matrix(20,0,0,20,0,-960)" />
  <path
     style="fill:#800080;stroke-width:0.825556"
     d="M 19.454118,31.828668 C 19.157192,31.693314 18.89799,31.470245 18.73725,31.211734 L 18.607059,31.002354 18.589102,24.48 c -0.0099,-3.587294 -0.0013,-6.755795 0.01912,-7.041114 0.0442,-0.618429 0.166602,-0.851393 0.604252,-1.150043 0.246703,-0.168349 0.336636,-0.195901 0.699206,-0.21421 0.344681,-0.01741 0.457417,2.69e-4 0.656911,0.102989 0.311183,0.160229 0.586498,0.423337 0.739889,0.707084 l 0.122111,0.225883 0.01678,5.76 c 0.01863,6.394598 -0.02109,8.096619 -0.195928,8.395982 -0.138787,0.237635 -0.52582,0.533356 -0.796394,0.608501 -0.318595,0.08848 -0.748781,0.06854 -1.000927,-0.0464 z"
     id="path859"
     transform="matrix(20,0,0,20,0,-960)" />
  <path
     style="fill:#800080;stroke-width:0.825556"
     d="m 27.464773,31.855943 c -0.280541,-0.127618 -0.648622,-0.491691 -0.777349,-0.768884 -0.117183,-0.252333 -0.118136,-0.29931 -0.135767,-6.691764 -0.01045,-3.787956 0.0043,-6.655045 0.03575,-6.965833 0.04471,-0.441311 0.08042,-0.566482 0.217148,-0.761017 0.252202,-0.358839 0.615439,-0.555363 1.089124,-0.589255 0.346175,-0.02477 0.432399,-0.0098 0.701905,0.122086 0.421295,0.20612 0.691991,0.517077 0.750881,0.862562 0.02556,0.149948 0.04647,3.322045 0.04647,7.049104 0,5.341403 -0.01522,6.819321 -0.07186,6.978814 -0.0894,0.251731 -0.359061,0.532495 -0.659271,0.686408 -0.293601,0.150525 -0.944195,0.192797 -1.197039,0.07778 z"
     id="path861"
     transform="matrix(20,0,0,20,0,-960)" />
</svg>
