<?xml version="1.0" encoding="UTF-8" standalone="no"?>
<svg
   height="48"
   viewBox="0 -960 960 960"
   width="48"
   version="1.1"
   id="svg4"
   sodipodi:docname="play.svg"
   inkscape:version="1.2.2 (1:1.2.2+202212051550+b0a8486541)"
   xmlns:inkscape="http://www.inkscape.org/namespaces/inkscape"
   xmlns:sodipodi="http://sodipodi.sourceforge.net/DTD/sodipodi-0.dtd"
   xmlns="http://www.w3.org/2000/svg"
   xmlns:svg="http://www.w3.org/2000/svg">
  <defs
     id="defs8" />
  <sodipodi:namedview
     id="namedview6"
     pagecolor="#ffffff"
     bordercolor="#666666"
     borderopacity="1.0"
     inkscape:showpageshadow="2"
     inkscape:pageopacity="0.0"
     inkscape:pagecheckerboard="0"
     inkscape:deskcolor="#d1d1d1"
     showgrid="false"
     inkscape:zoom="17.708333"
     inkscape:cx="20.611765"
     inkscape:cy="24"
     inkscape:window-width="1024"
     inkscape:window-height="731"
     inkscape:window-x="522"
     inkscape:window-y="0"
     inkscape:window-maximized="1"
     inkscape:current-layer="svg4" />
  <path
     d="m383-310 267-170-267-170v340Zm97 230q-82 0-155-31.5t-127.5-86Q143-252 111.5-325T80-480q0-83 31.5-156t86-127Q252-817 325-848.5T480-880q83 0 156 31.5T763-763q54 54 85.5 127T880-480q0 82-31.5 155T763-197.5q-54 54.5-127 86T480-80Zm0-60q142 0 241-99.5T820-480q0-142-99-241t-241-99q-141 0-240.5 99T140-480q0 141 99.5 240.5T480-140Zm0-340Z"
     id="path2" />
  <path
     style="fill:#800080;stroke:none;stroke-width:0.825556"
     d="M 22.588235,43.925627 C 20.475414,43.726244 19.272906,43.48221 17.630885,42.919593 13.249917,41.418514 9.5267087,38.460798 7.0548961,34.51803 6.611595,33.810924 5.8270067,32.287499 5.509304,31.516974 3.7302344,27.202192 3.5441833,22.253161 4.9953165,17.844706 6.3925507,13.599992 9.1201975,9.9815136 12.790588,7.5035464 c 2.757981,-1.861978 5.693232,-2.9610021 8.978824,-3.3618748 0.826966,-0.1008975 3.690912,-0.1015466 4.489412,-0.00102 3.077434,0.3874417 5.656369,1.2865268 8.238352,2.872109 2.213999,1.3596042 4.25255,3.2608064 5.726455,5.3406314 0.831785,1.173732 1.682866,2.699448 2.244167,4.023076 1.97293,4.65245 2.000021,10.279473 0.07232,15.021176 -2.229071,5.483007 -6.63753,9.654092 -12.215413,11.557672 -1.364487,0.465662 -3.058211,0.814336 -4.602353,0.947451 -0.617142,0.0532 -2.655065,0.06806 -3.134118,0.02286 z m 2.857682,-2.958214 c 4.36828,-0.350741 8.057663,-2.14417 11.048355,-5.370662 2.630297,-2.837683 4.068271,-6.012715 4.446546,-9.817927 0.07625,-0.767068 0.07569,-2.853529 -9.77e-4,-3.614118 -0.333086,-3.304422 -1.492081,-6.174414 -3.534718,-8.752941 -0.528656,-0.66735 -2.191518,-2.31978 -2.889408,-2.871283 C 32.106314,8.6364736 29.449143,7.5273656 26.287059,7.1058273 25.249544,6.967516 22.738223,6.9691162 21.712941,7.108742 c -3.983493,0.5424834 -7.25559,2.2095976 -10.039939,5.11529 -2.6981621,2.81575 -4.2264961,6.109291 -4.6128676,9.940674 -0.089907,0.891547 -0.074757,2.979947 0.028174,3.883569 0.4084806,3.586042 1.7876153,6.614742 4.2583656,9.351743 2.795895,3.097181 6.395233,5.000099 10.366267,5.480492 1.245722,0.1507 2.557956,0.181249 3.732976,0.0869 z"
     id="path914"
     transform="matrix(20,0,0,20,0,-960)" />
  <path
     style="fill:#00ff00;stroke:none;stroke-width:0.825556"
     d="m 19.171765,24 c 0,-6.099591 0.01717,-8.438407 0.06175,-8.410857 0.776789,0.480082 13.135357,8.366247 13.153965,8.393719 0.01844,0.02722 -11.55299,7.441545 -13.145123,8.422658 -0.05635,0.03472 -0.07059,-1.660753 -0.07059,-8.40552 z"
     id="path1780"
     transform="matrix(20,0,0,20,0,-960)" />
  <path
     style="fill:#800080;stroke-width:0.825556"
     d="m 19.229634,31.976471 c -0.04877,-0.480431 -0.0116,-16.229826 0.03842,-16.279832 0.03944,-0.03943 1.770972,1.05175 8.769591,5.526417 1.987764,1.270906 3.760235,2.402857 3.938823,2.515446 0.178588,0.112589 0.324706,0.221672 0.324706,0.242407 0,0.05159 -2.467866,1.650771 -8.131765,5.269403 -3.16348,2.021128 -4.838354,3.0791 -4.87452,3.0791 -0.01619,0 -0.04555,-0.158823 -0.06526,-0.352941 z"
     id="path858"
     transform="matrix(20,0,0,20,0,-960)" />
  <path
     style="fill:#800080;stroke-width:0.825556"
     d="m 19.292131,32.233308 c -0.0504,-0.0504 -0.0429,-16.351018 0.0076,-16.430057 0.05565,-0.08716 1.007416,0.510273 11.801488,7.407925 0.628941,0.401908 1.143529,0.747573 1.143529,0.768144 0,0.05238 -1.716115,1.168401 -6.804706,4.42522 -3.290872,2.106236 -5.799267,3.696947 -5.994416,3.801387 -0.06479,0.03467 -0.13384,0.04699 -0.153453,0.02738 z"
     id="path860"
     transform="matrix(20,0,0,20,0,-960)" />
</svg>
