<?xml version="1.0" encoding="UTF-8" standalone="no"?>
<svg
   height="24px"
   viewBox="0 0 24 24"
   width="24px"
   fill="#000000"
   version="1.1"
   id="svg6"
   sodipodi:docname="rotate_right.svg"
   inkscape:version="1.2.2 (1:1.2.2+202212051550+b0a8486541)"
   xmlns:inkscape="http://www.inkscape.org/namespaces/inkscape"
   xmlns:sodipodi="http://sodipodi.sourceforge.net/DTD/sodipodi-0.dtd"
   xmlns="http://www.w3.org/2000/svg"
   xmlns:svg="http://www.w3.org/2000/svg">
  <defs
     id="defs10" />
  <sodipodi:namedview
     id="namedview8"
     pagecolor="#ffffff"
     bordercolor="#666666"
     borderopacity="1.0"
     inkscape:showpageshadow="2"
     inkscape:pageopacity="0.0"
     inkscape:pagecheckerboard="0"
     inkscape:deskcolor="#d1d1d1"
     showgrid="false"
     inkscape:zoom="36.458333"
     inkscape:cx="9.2434286"
     inkscape:cy="12.013714"
     inkscape:window-width="1920"
     inkscape:window-height="1043"
     inkscape:window-x="0"
     inkscape:window-y="0"
     inkscape:window-maximized="1"
     inkscape:current-layer="svg6" />
  <path
     d="M0 0h24v24H0z"
     fill="none"
     id="path2" />
  <path
     d="M 16.96,8.53 18.37,7.11 C 19.27,8.27 19.83,9.61 20,11 H 17.98 C 17.84,10.13 17.49,9.28 16.96,8.53 Z M 17.98,13 H 20 c -0.17,1.39 -0.72,2.73 -1.62,3.89 l -1.41,-1.42 c 0.52,-0.75 0.87,-1.59 1.01,-2.47 z m -1.01,5.32 c -1.16,0.9 -2.51,1.44 -3.9,1.61 V 17.9 c 0.87,-0.15 1.71,-0.49 2.46,-1.03 z M 11.07,4.07 V 1 L 15.62,5.55 11.07,10 V 6.09 c -2.84,0.48 -5,2.94 -5,5.91 0,2.97 2.16,5.43 5,5.91 v 2.02 c -3.95,-0.49 -7,-3.85 -7,-7.93 0,-4.08 3.05,-7.44 7,-7.93 z"
     id="path4"
     style="fill:#800080" />
</svg>
