<?xml version="1.0" encoding="UTF-8" standalone="no"?>
<!-- Created with Inkscape (http://www.inkscape.org/) -->

<svg
   width="92.764519mm"
   height="54.551826mm"
   viewBox="0 0 92.764521 54.551828"
   version="1.1"
   id="svg5"
   sodipodi:docname="select_columns.svg"
   inkscape:version="1.2.2 (1:1.2.2+202212051550+b0a8486541)"
   inkscape:export-filename="filter_random.svg"
   inkscape:export-xdpi="88.914314"
   inkscape:export-ydpi="88.914314"
   xmlns:inkscape="http://www.inkscape.org/namespaces/inkscape"
   xmlns:sodipodi="http://sodipodi.sourceforge.net/DTD/sodipodi-0.dtd"
   xmlns="http://www.w3.org/2000/svg"
   xmlns:svg="http://www.w3.org/2000/svg">
  <sodipodi:namedview
     id="namedview5328"
     pagecolor="#ffffff"
     bordercolor="#666666"
     borderopacity="1.0"
     inkscape:showpageshadow="2"
     inkscape:pageopacity="0.0"
     inkscape:pagecheckerboard="0"
     inkscape:deskcolor="#d1d1d1"
     inkscape:document-units="mm"
     showgrid="false"
     inkscape:zoom="2.2222224"
     inkscape:cx="182.47499"
     inkscape:cy="191.92498"
     inkscape:window-width="1848"
     inkscape:window-height="1016"
     inkscape:window-x="72"
     inkscape:window-y="1107"
     inkscape:window-maximized="1"
     inkscape:current-layer="svg5" />
  <defs
     id="defs2" />
  <rect
     style="fill:#ffffff;fill-opacity:0.499163;stroke:#ffffff;stroke-width:1.2;stroke-linecap:round;stroke-linejoin:miter;stroke-miterlimit:5.7;stroke-dasharray:2.4, 2.4;stroke-dashoffset:0;stroke-opacity:1"
     id="rect23904"
     width="91.564514"
     height="53.35183"
     x="0.59999996"
     y="0.60000116"
     inkscape:export-filename="./filter_criteria.svg"
     inkscape:export-xdpi="88.914314"
     inkscape:export-ydpi="88.914314" />
  <rect
     style="fill:#ffffff;fill-opacity:1;stroke:#505050;stroke-width:1.2;stroke-linecap:round;stroke-linejoin:miter;stroke-miterlimit:5.7;stroke-dasharray:2.4, 2.4;stroke-dashoffset:0;stroke-opacity:1"
     id="rect23455-1"
     width="25.227804"
     height="42.809158"
     x="61.329067"
     y="6.038167"
     inkscape:export-filename="filter_random.svg"
     inkscape:export-xdpi="88.914314"
     inkscape:export-ydpi="88.914314" />
  <rect
     style="fill:#ffffff;fill-opacity:1;stroke:#505050;stroke-width:1.2;stroke-linecap:round;stroke-linejoin:miter;stroke-miterlimit:5.7;stroke-dasharray:2.4, 2.4;stroke-dashoffset:0;stroke-opacity:1"
     id="rect23455"
     width="25.227804"
     height="42.809158"
     x="6.1515012"
     y="5.9858503" />
  <rect
     style="fill:none;stroke:none;stroke-width:0.647877;stroke-opacity:1"
     id="rect790"
     width="100.55524"
     height="100.55524"
     x="-2.1352727"
     y="-24.492781" />
  <path
     style="fill:#0000e6;fill-opacity:1;stroke:#0065fe;stroke-width:3.07492;stroke-linejoin:round;stroke-dasharray:none;stroke-opacity:1"
     d="m 41.21782,24.957484 6.184415,-0.05557 -0.09803,-3.43518 c -0.09289,-3.25505 -0.08829,-3.426983 0.0876,-3.278906 0.102102,0.08595 2.405076,2.246481 5.117719,4.80118 2.712642,2.554701 4.997873,4.706331 5.078293,4.781404 0.128127,0.119612 -0.473829,0.753298 -4.8672,5.123736 l -5.013409,4.987245 c -0.07854,-1.815449 -0.171988,-3.6309 -0.218852,-5.447093 l -0.03262,-1.367399 -6.169583,0.05544 -6.169584,0.05544 -0.04157,-3.082362 -0.04157,-3.082359 z"
     id="path20804"
     sodipodi:nodetypes="ccssssscccccccc" />
  <path
     style="fill:#d06629;fill-opacity:1;stroke:#ffffff;stroke-width:0.727319;stroke-linecap:round;stroke-linejoin:miter;stroke-miterlimit:5.7;stroke-dasharray:1.45464, 1.45464;stroke-dashoffset:0;stroke-opacity:1"
     d="m 64.936968,27.442746 v 18.948738 h 2.62205 2.622048 V 27.442746 8.4940083 h -2.622048 -2.62205 z"
     id="path27863-6" />
  <path
     style="fill:#6100ff;fill-opacity:1;stroke:#ffffff;stroke-width:0.727319;stroke-linecap:round;stroke-linejoin:miter;stroke-miterlimit:5.7;stroke-dasharray:1.45464, 1.45464;stroke-dashoffset:0;stroke-opacity:1"
     d="m 77.781393,27.442746 v 18.948738 h 2.62205 2.622048 V 27.442746 8.4940083 h -2.622048 -2.62205 z"
     id="path27863-3-7-5" />
  <path
     style="fill:#d06629;fill-opacity:1;stroke:#ffffff;stroke-width:0.727319;stroke-linecap:round;stroke-linejoin:miter;stroke-miterlimit:5.7;stroke-dasharray:1.45464, 1.45464;stroke-dashoffset:0;stroke-opacity:1"
     d="m 9.612048,27.390429 v 18.948738 h 2.62205 2.622048 V 27.390429 8.4416915 h -2.622048 -2.62205 z"
     id="path27863-6-3" />
  <path
     style="fill:#d06629;fill-opacity:1;stroke:#ffffff;stroke-width:0.727319;stroke-linecap:round;stroke-linejoin:miter;stroke-miterlimit:5.7;stroke-dasharray:1.45464, 1.45464;stroke-dashoffset:0;stroke-opacity:1"
     d="m 15.996,27.390429 v 18.948738 h 2.62205 2.622048 V 27.390429 8.4416915 H 18.61805 15.996 Z"
     id="path27863-3-7-6" />
  <path
     style="fill:#6100ff;fill-opacity:1;stroke:#ffffff;stroke-width:0.727319;stroke-linecap:round;stroke-linejoin:miter;stroke-miterlimit:5.7;stroke-dasharray:1.45464, 1.45464;stroke-dashoffset:0;stroke-opacity:1"
     d="m 22.456473,27.390429 v 18.948738 h 2.62205 2.622048 V 27.390429 8.4416915 h -2.622048 -2.62205 z"
     id="path27863-3-7-5-7" />
  <path
     style="fill:#6100ff;fill-opacity:1;stroke-width:6.57864"
     d="m 38.024997,172.21099 c 0,-1.79958 -0.241891,-3.1588 -0.660688,-3.71249 -0.858765,-1.1354 -0.865206,-2.64233 -0.01431,-3.34851 0.952097,-0.79017 0.952097,-6.85983 0,-7.65 -0.867898,-0.7203 -0.867898,-2.57139 0,-3.43929 0.46875,-0.46875 0.675,-1.61786 0.675,-3.76071 0,-2.14286 -0.20625,-3.29197 -0.675,-3.76071 -0.867898,-0.86791 -0.867898,-2.719 0,-3.43929 0.952097,-0.79017 0.952097,-6.85983 0,-7.65 -0.867898,-0.72029 -0.867898,-2.57139 0,-3.43929 0.938949,-0.93894 0.938949,-6.58248 0,-7.52142 -0.867898,-0.8679 -0.867898,-2.719 0,-3.43929 0.952097,-0.79017 0.952097,-6.85983 0,-7.65 -0.859579,-0.71339 -0.870679,-2.56861 -0.02045,-3.41883 0.514343,-0.51434 0.654545,-2.09537 0.654545,-7.38117 0,-5.285792 -0.140202,-6.866822 -0.654545,-7.381168 -0.850225,-0.850221 -0.839125,-2.70544 0.02045,-3.418829 0.952097,-0.790169 0.952097,-6.859831 0,-7.65 -0.850894,-0.70618 -0.844453,-2.213118 0.01431,-3.348508 0.915444,-1.210324 0.905137,-6.692758 -0.01431,-7.612205 -0.86495,-0.86495 -0.86495,-2.413621 0,-3.278571 0.919448,-0.919448 0.929755,-6.401881 0.01431,-7.612205 -0.858765,-1.13539 -0.865206,-2.642329 -0.01431,-3.348509 0.952097,-0.79017 0.952097,-6.859829 0,-7.649999 -0.867898,-0.720292 -0.867898,-2.571387 0,-3.439285 0.46875,-0.468751 0.675,-1.617857 0.675,-3.760715 0,-2.142857 -0.20625,-3.291963 -0.675,-3.760714 -0.867898,-0.867898 -0.867898,-2.718993 0,-3.439285 0.37125,-0.30811 0.675,-1.142905 0.675,-1.8551 0,-0.712195 0.405,-1.6999 0.9,-2.1949 1.059399,-1.059398 2.943438,-1.187362 3.312731,-0.225 0.376761,0.981824 7.723239,0.981824 8.1,0 0.142462,-0.37125 0.749962,-0.675 1.35,-0.675 0.600038,0 1.207538,0.30375 1.349999,0.675 0.142463,0.37125 0.569128,0.675 0.948145,0.675 0.482811,0 0.689124,0.455034 0.689124,1.5199 0,0.835945 0.30375,1.77199 0.675,2.0801 0.872149,0.72382 0.872149,2.652593 0,2.987268 -0.981824,0.376761 -0.981824,7.723238 0,8.099999 0.880147,0.337744 0.880147,2.68772 0,3.025464 -0.979648,0.375926 -0.979648,7.398609 0,7.774536 0.880147,0.337743 0.880147,2.687719 0,3.025463 -0.982607,0.377061 -0.982607,7.847474 0,8.224536 0.871586,0.334459 0.871586,2.139379 0,2.862731 -0.968477,0.803764 -0.968477,7.565629 0,7.937266 0.880147,0.337748 0.880147,2.687719 0,3.025467 -0.981824,0.376758 -0.981824,7.723237 0,8.099999 0.37125,0.142461 0.675,0.746829 0.675,1.343043 0,0.596214 -0.30375,1.336113 -0.675,1.644223 -0.968477,0.803763 -0.968477,7.565628 0,7.937268 0.880147,0.33775 0.880147,2.68772 0,3.02547 -0.968477,0.37163 -0.968477,7.1335 0,7.93726 0.872149,0.72382 0.872149,2.65259 0,2.98727 -0.526086,0.20188 -0.675,1.09536 -0.675,4.05 0,2.95463 0.148914,3.84812 0.675,4.05 0.376498,0.14447 0.675,0.81344 0.675,1.51273 0,0.69929 -0.298502,1.36826 -0.675,1.51273 -0.521269,0.20003 -0.675,1.06959 -0.675,3.81805 0,2.61459 0.179118,3.70768 0.675,4.11922 0.871586,0.72335 0.871586,2.52827 0,2.86273 -0.527281,0.20234 -0.675,1.10228 -0.675,4.11227 0,3.00999 0.147719,3.90993 0.675,4.11226 0.37125,0.14247 0.675,0.71882 0.675,1.28078 0,0.56197 -0.30375,1.27385 -0.675,1.58196 -0.495882,0.41154 -0.675,1.50462 -0.675,4.11922 0,2.74846 0.153731,3.61801 0.675,3.81804 0.880147,0.33775 0.880147,2.68772 0,3.02547 -0.981824,0.37676 -0.981824,7.72324 0,8.1 0.872149,0.33467 0.872149,2.26345 0,2.98727 -0.37125,0.30811 -0.675,0.83915 -0.675,1.18009 0,0.40474 -0.529969,0.61991 -1.526855,0.61991 -0.942084,0 -1.626058,0.25852 -1.785877,0.675 -0.142462,0.37125 -0.777983,0.675 -1.412268,0.675 -0.634285,0 -1.269806,-0.30375 -1.412268,-0.675 -0.201878,-0.52609 -1.095362,-0.675 -4.05,-0.675 -2.954637,0 -3.848121,0.14891 -4.05,0.675 -0.142461,0.37125 -0.743606,0.675 -1.335876,0.675 -1.022014,0 -1.076855,-0.14458 -1.076855,-2.839 z"
     id="path1043"
     transform="scale(0.26458333)" />
  <path
     style="fill:#6100ff;fill-opacity:1;stroke-width:6.57864"
     d="m 246.82498,171.88587 c 0,-2.39744 -0.16356,-3.22689 -0.675,-3.42315 -0.88015,-0.33775 -0.88015,-2.68772 0,-3.02547 0.98182,-0.37675 0.98182,-7.72323 0,-8.1 -0.37125,-0.14246 -0.675,-0.74996 -0.675,-1.35 0,-0.60003 0.30375,-1.20753 0.675,-1.35 0.98261,-0.37706 0.98261,-7.84747 0,-8.22453 -0.88015,-0.33775 -0.88015,-2.68772 0,-3.02546 0.98182,-0.37676 0.98182,-7.72324 0,-8.1 -0.87577,-0.33607 -0.87577,-2.36394 0,-2.7 0.98261,-0.37706 0.98261,-7.84748 0,-8.22454 -0.87159,-0.33446 -0.87159,-2.13938 0,-2.86273 0.96848,-0.80376 0.96848,-7.56563 0,-7.93727 -0.3765,-0.14447 -0.675,-0.81344 -0.675,-1.51273 0,-0.69929 0.2985,-1.36826 0.675,-1.51273 1.00538,-0.3858 1.00538,-15.038736 0,-15.424534 -0.87577,-0.336065 -0.87577,-2.363935 0,-2.7 0.98182,-0.376762 0.98182,-7.723241 0,-8.099999 -0.88015,-0.337748 -0.88015,-2.68772 0,-3.025467 0.98261,-0.377059 0.98261,-7.847472 0,-8.224534 -0.87577,-0.336064 -0.87577,-2.363935 0,-2.7 0.98182,-0.376761 0.98182,-7.723238 0,-8.099999 -0.88015,-0.337744 -0.88015,-2.68772 0,-3.025463 0.98182,-0.376762 0.98182,-7.723239 0,-8.1 -0.87577,-0.336064 -0.87577,-2.363936 0,-2.7 0.98261,-0.377061 0.98261,-7.847474 0,-8.224536 -0.88015,-0.337743 -0.88015,-2.687719 0,-3.025463 0.40049,-0.153683 0.675,-0.830197 0.675,-1.663513 0,-2.404885 3.12507,-4.105446 4.5,-2.448755 0.78723,0.948558 6.86216,0.948558 7.81071,0 1.43607,-1.436069 4.33929,-0.164861 4.33929,1.900009 0,0.563745 0.405,1.429991 0.9,1.924991 1.10997,1.109974 1.16082,2.509315 0.1125,3.095986 -1.16249,0.650562 -1.16249,7.557465 0,8.208027 1.04832,0.586671 0.99747,1.986011 -0.1125,3.095986 -0.71539,0.715385 -0.9,1.5 -0.9,3.825 0,2.325 0.18461,3.109615 0.9,3.824999 1.10067,1.10067 1.16308,2.508049 0.1367,3.08244 -0.56381,0.315525 -0.81339,1.213892 -0.95497,3.437464 -0.16229,2.54869 -0.0452,3.208373 0.76329,4.301977 1.19016,1.609769 1.20276,2.430333 0.055,3.578118 -0.71539,0.715385 -0.9,1.5 -0.9,3.825 0,2.325001 0.18461,3.109617 0.9,3.825 1.14482,1.144817 1.14482,2.29036 0,3.270586 -1.30407,1.11658 -1.30407,6.225344 0,7.529413 1.14581,1.145817 1.14581,2.454182 0,3.599999 -1.30407,1.304069 -1.30407,6.412828 0,7.529418 0.495,0.42383 0.9,1.13059 0.9,1.57059 0,0.44 -0.405,1.20499 -0.9,1.69999 -0.71539,0.71538 -0.9,1.5 -0.9,3.825 0,2.325 0.18461,3.10962 0.9,3.825 1.14778,1.14778 1.13518,1.96835 -0.055,3.57812 -0.80853,1.09361 -0.92558,1.75329 -0.76329,4.30197 0.14158,2.22358 0.39116,3.12195 0.95497,3.43747 1.02638,0.57439 0.96397,1.98177 -0.1367,3.08244 -1.29856,1.29856 -1.29856,6.35144 0,7.65 1.10997,1.10997 1.16082,2.50932 0.1125,3.09599 -0.64942,0.36343 -0.7875,1.08303 -0.7875,4.10401 0,3.02097 0.13808,3.74058 0.7875,4.10401 1.04832,0.58667 0.99747,1.98601 -0.1125,3.09599 -1.29856,1.29856 -1.29856,6.35144 0,7.65 0.495,0.495 0.9,1.25999 0.9,1.69999 0,0.44 -0.405,1.14676 -0.9,1.57059 -1.30407,1.11658 -1.30407,6.22535 0,7.52942 0.495,0.495 0.9,1.29457 0.9,1.77681 0,1.17786 -1.9078,3.17319 -3.034,3.17319 -0.49819,0 -1.15789,0.30375 -1.466,0.675 -0.30811,0.37125 -1.05612,0.675 -1.66224,0.675 -0.60613,0 -1.4058,-0.30375 -1.77705,-0.675 -0.47935,-0.47936 -1.64799,-0.675 -4.03198,-0.675 -2.56886,0 -3.41779,0.15847 -3.616,0.675 -0.14765,0.38476 -0.81879,0.675 -1.56087,0.675 h -1.30186 z"
     id="path1045"
     transform="scale(0.26458333)" />
</svg>
