<?xml version="1.0" encoding="UTF-8" standalone="no"?>
<!-- Created with Inkscape (http://www.inkscape.org/) -->

<svg
   width="101.20312mm"
   height="101.20312mm"
   viewBox="0 0 101.20312 101.20312"
   version="1.1"
   id="svg5"
   sodipodi:docname="2d_histogram.svg"
   inkscape:version="1.2.2 (1:1.2.2+202212051550+b0a8486541)"
   xmlns:inkscape="http://www.inkscape.org/namespaces/inkscape"
   xmlns:sodipodi="http://sodipodi.sourceforge.net/DTD/sodipodi-0.dtd"
   xmlns="http://www.w3.org/2000/svg"
   xmlns:svg="http://www.w3.org/2000/svg">
  <sodipodi:namedview
     id="namedview5328"
     pagecolor="#ffffff"
     bordercolor="#666666"
     borderopacity="1.0"
     inkscape:showpageshadow="2"
     inkscape:pageopacity="0.0"
     inkscape:pagecheckerboard="0"
     inkscape:deskcolor="#d1d1d1"
     inkscape:document-units="mm"
     showgrid="false"
     inkscape:zoom="2.2222224"
     inkscape:cx="163.79999"
     inkscape:cy="159.29999"
     inkscape:window-width="1280"
     inkscape:window-height="987"
     inkscape:window-x="267"
     inkscape:window-y="0"
     inkscape:window-maximized="1"
     inkscape:current-layer="svg5" />
  <defs
     id="defs2" />
  <rect
     style="fill:none;stroke:none;stroke-width:0.647877;stroke-opacity:1"
     id="rect790"
     width="100.55524"
     height="100.55524"
     x="0.323939"
     y="0.32393771" />
  <rect
     style="fill:#ffffff;stroke:none;stroke-width:0.717"
     id="rect883-3"
     width="16.600843"
     height="16.600843"
     x="33.642223"
     y="16.726" />
  <rect
     style="fill:#ffffff;stroke:none;stroke-width:0.717"
     id="rect883-3-6-7"
     width="16.600843"
     height="16.600843"
     x="67.335197"
     y="16.726" />
  <rect
     style="fill:#ffffff;stroke:none;stroke-width:0.717"
     id="rect883-3-3"
     width="16.600843"
     height="16.600843"
     x="33.642216"
     y="33.642212" />
  <rect
     style="fill:#ffffff;stroke:none;stroke-width:0.717"
     id="rect883-3-6-5"
     width="16.600843"
     height="16.600843"
     x="50.436741"
     y="33.642212" />
  <rect
     style="fill:#ffffff;stroke:none;stroke-width:0.717"
     id="rect883-3-6-7-6"
     width="16.600843"
     height="16.600843"
     x="67.335182"
     y="33.642212" />
  <rect
     style="fill:#ffffff;stroke:none;stroke-width:0.717"
     id="rect883-5-2"
     width="16.600843"
     height="16.600843"
     x="17.041368"
     y="49.742157" />
  <rect
     style="fill:#ffffff;stroke:none;stroke-width:0.717"
     id="rect883-3-3-9"
     width="16.600843"
     height="16.600843"
     x="33.642216"
     y="49.742157" />
  <rect
     style="fill:none;stroke:none;stroke-width:0.717"
     id="rect883-3-6-5-1"
     width="16.600843"
     height="16.600843"
     x="50.436741"
     y="49.742157" />
  <rect
     style="fill:#ffffff;stroke:none;stroke-width:0.717"
     id="rect883-3-6-7-6-2"
     width="16.600843"
     height="16.600843"
     x="67.335182"
     y="49.742157" />
  <rect
     style="fill:#ffffff;stroke:none;stroke-width:0.717"
     id="rect883-5-2-0"
     width="16.600843"
     height="16.600843"
     x="17.041361"
     y="66.169533" />
  <rect
     style="fill:#ffffff;stroke:none;stroke-width:0.717"
     id="rect883-3-3-9-9"
     width="16.600843"
     height="16.600843"
     x="33.642216"
     y="66.169533" />
  <rect
     style="fill:#ffffff;stroke:none;stroke-width:0.717"
     id="rect883-3-6-5-1-3"
     width="16.600843"
     height="16.600843"
     x="50.436741"
     y="66.169533" />
  <rect
     style="fill:none;stroke:none;stroke-width:0.717"
     id="rect883-3-6-7-6-2-6"
     width="16.600843"
     height="16.600843"
     x="67.335175"
     y="66.169533" />
  <path
     style="fill:#56ff00;fill-opacity:1;stroke:none;stroke-width:0.946878"
     d="m 34.336449,24.946893 v -7.687059 h 7.687059 7.687058 v 7.687059 7.687058 h -7.687058 -7.687059 z"
     id="path1528" />
  <path
     style="fill:#e4ff00;fill-opacity:1;stroke:none;stroke-width:0.946878"
     d="m 51.108214,41.543953 v -7.512354 h 7.687059 7.687058 v 7.512354 7.512352 h -7.687058 -7.687059 z"
     id="path1599" />
  <path
     style="fill:#fcff00;fill-opacity:1;stroke:none;stroke-width:0.946878"
     d="m 34.336449,57.7916 v -7.687061 h 7.687059 7.687058 v 7.687061 7.687059 h -7.687058 -7.687059 z"
     id="path2638" />
  <path
     style="fill:#beff00;fill-opacity:1;stroke:none;stroke-width:0.946878"
     d="m 34.336449,41.543953 v -7.512354 h 7.687059 7.687058 v 7.512354 7.512352 h -7.687058 -7.687059 z"
     id="path2709" />
  <path
     style="fill:#eff300;fill-opacity:1;stroke:none;stroke-width:0.946878"
     d="m 67.87998,41.543953 v -7.512354 h 7.687058 7.687059 v 7.512354 7.512352 H 75.567038 67.87998 Z"
     id="path3334" />
  <path
     style="fill:#3ed800;fill-opacity:1;stroke:none;stroke-width:0.946878"
     d="m 67.87998,24.946893 v -7.687059 h 7.687058 7.687059 v 7.687059 7.687058 H 75.567038 67.87998 Z"
     id="path3547" />
  <path
     style="fill:#7bd800;fill-opacity:1;stroke:none;stroke-width:0.946878"
     d="m 67.87998,57.7916 v -7.687061 h 7.687058 7.687059 V 57.7916 65.478659 H 75.567038 67.87998 Z"
     id="path3894" />
  <path
     style="fill:#9dd800;fill-opacity:1;stroke:none;stroke-width:0.946878"
     d="m 51.108214,74.388659 v -7.861766 h 7.687059 7.687058 v 7.861766 7.861763 h -7.687058 -7.687059 z"
     id="path3965" />
  <path
     style="fill:#c6d800;fill-opacity:1;stroke:none;stroke-width:0.946878"
     d="m 17.564686,57.7916 v -7.687061 h 7.861763 7.861766 v 7.687061 7.687059 h -7.861766 -7.861763 z"
     id="path4178" />
  <path
     style="fill:#23f400;fill-opacity:1;stroke:none;stroke-width:0.946878"
     d="m 34.336449,74.388659 v -7.861766 h 7.687059 7.687058 v 7.861766 7.861763 h -7.687058 -7.687059 z"
     id="path4874" />
  <path
     style="fill:#99f400;fill-opacity:1;stroke:none;stroke-width:0.946878"
     d="m 17.564686,74.388659 v -7.861766 h 7.861763 7.861766 v 7.861766 7.861763 h -7.861766 -7.861763 z"
     id="path5014" />
  <path
     style="fill:#99f400;fill-opacity:1;stroke:none;stroke-width:0.946878"
     d="m 18.263509,74.388659 v -7.162943 h 7.16294 7.162943 v 7.162943 7.16294 h -7.162943 -7.16294 z"
     id="path5085" />
  <path
     style="fill:none;stroke:#242423;stroke-width:1.465;stroke-linecap:butt;stroke-linejoin:miter;stroke-dasharray:none;stroke-opacity:1"
     d="m 16.404707,16.726 -7e-6,66.897751 h 66.894659"
     id="path9117"
     sodipodi:nodetypes="ccc" />
</svg>
